<?xml version="1.0" encoding="iso-8859-1"?>
<!-- Uploaded to: SVG Repo, www.svgrepo.com, Generator: SVG Repo Mixer Tools -->
<svg height="800px" width="800px" version="1.1" id="Layer_1" xmlns="http://www.w3.org/2000/svg" xmlns:xlink="http://www.w3.org/1999/xlink" 
	 viewBox="0 0 512 512" xml:space="preserve">
<polygon style="fill:#C8FEFF;" points="308.104,236.936 303.06,399.425 208.94,399.425 203.896,236.936 "/>
<g>
	<path style="fill:#98E1E2;" d="M379.534,236.936l-12.092,129.95c-1.667,17.898-17.713,32.539-35.655,32.539H303.06l5.044-162.489
		H379.534z"/>
	<path style="fill:#98E1E2;" d="M203.896,236.936l5.044,162.489h-28.726c-17.942,0-33.988-14.641-35.655-32.539l-12.092-129.95
		H203.896z"/>
</g>
<path style="fill:#C8FEFF;" d="M333.519,88.783c-38.759,0-38.759-15.251-77.519-15.251c-38.77,0-38.77,15.251-77.53,15.251
	s-38.759-15.251-77.519-15.251l11.199,120.374l19.358,32.681l0.959,10.349h247.067l0.959-10.349l19.358-32.681l11.199-120.374
	C372.289,73.532,372.289,88.783,333.519,88.783z"/>
<path style="fill:#74D1D2;" d="M412.302,236.936l-15.709,234.289c-1.198,17.931-16.863,32.605-34.816,32.605H149.689
	c-17.953,0-33.585-14.674-34.751-32.615l-15.24-234.278h32.768l12.092,129.95c1.667,17.898,17.713,32.539,35.655,32.539h28.726
	h94.121h28.726c17.942,0,33.988-14.641,35.655-32.539l12.092-129.95H412.302z"/>
<path style="fill:#98E1E2;" d="M62.094,8.17L80.34,204.255l19.358,32.681h32.768l-0.959-10.349l-19.358-32.681L100.951,73.532
	c38.759,0,38.759,15.251,77.519,15.251S217.23,73.532,256,73.532c38.76,0,38.76,15.251,77.519,15.251
	c38.77,0,38.77-15.251,77.53-15.251L399.85,193.906l-19.358,32.681l-0.959,10.349h32.768l19.358-32.681L449.906,8.17H62.094z"/>
<path style="fill:#700D00;" d="M455.945,2.667C454.398,0.968,452.205,0,449.906,0h-38.854c-4.512,0-8.17,3.657-8.17,8.17
	s3.658,8.17,8.17,8.17h29.888l-17.245,185.331l-16.047,27.095h-18.948l18.181-30.698c0.616-1.04,0.993-2.203,1.106-3.406
	l11.201-120.372c0.212-2.29-0.548-4.562-2.096-6.261c-1.548-1.699-3.741-2.667-6.038-2.667c-20.931,0-31.519,4.165-41.756,8.193
	c-9.226,3.63-17.94,7.058-35.772,7.058c-17.833,0-26.548-3.428-35.774-7.058c-10.238-4.028-20.824-8.193-41.755-8.193
	s-31.516,4.165-41.754,8.193c-9.226,3.63-17.94,7.058-35.771,7.058c-17.831,0-26.544-3.428-35.769-7.058
	c-10.238-4.028-20.824-8.193-41.754-8.193c-2.299,0-4.491,0.968-6.038,2.667c-1.548,1.699-2.309,3.972-2.096,6.261l11.2,120.372
	c0.112,1.203,0.489,2.366,1.106,3.406l18.181,30.698h-18.947l-16.047-27.095L71.059,16.34h307.312c4.512,0,8.17-3.657,8.17-8.17
	S382.883,0,378.371,0H62.094c-2.299,0-4.491,0.968-6.038,2.667c-1.548,1.699-2.309,3.972-2.096,6.261l18.246,196.085
	c0.112,1.203,0.489,2.366,1.106,3.406l18.36,30.998l15.109,232.331c1.443,22.196,20.69,40.252,42.905,40.252H361.78
	c22.206,0,41.481-18.047,42.969-40.231l15.577-232.345l18.363-31.005c0.616-1.04,0.993-2.203,1.106-3.406L458.041,8.927
	C458.254,6.639,457.494,4.366,455.945,2.667z M139.639,225.828c-0.112-1.203-0.489-2.366-1.106-3.406l-18.421-31.101L109.943,82.032
	c12.067,0.941,19.25,3.768,26.774,6.729c10.237,4.027,20.823,8.192,41.753,8.192c20.931,0,31.517-4.165,41.754-8.193
	c9.225-3.63,17.939-7.058,35.771-7.058s26.548,3.428,35.772,7.058c10.238,4.028,20.824,8.193,41.756,8.193
	c20.932,0,31.519-4.165,41.755-8.193c7.524-2.961,14.71-5.788,26.778-6.729l-10.169,109.288l-18.421,31.101
	c-0.616,1.04-0.993,2.203-1.106,3.406l-0.273,2.939h-20.411c-4.512,0-8.17,3.657-8.17,8.17s3.658,8.17,8.17,8.17h18.892
	l-11.261,121.025c-1.268,13.62-13.871,25.126-27.523,25.126h-20.294l4.532-146.151h2.973c4.512,0,8.17-3.657,8.17-8.17
	s-3.658-8.17-8.17-8.17H139.912L139.639,225.828z M216.859,391.257l-4.533-146.151h87.347l-4.533,146.151H216.859z M195.977,245.106
	l4.533,146.151h-20.294c-13.652,0-26.256-11.507-27.523-25.126l-11.261-121.025H195.977z M388.446,470.675
	c-0.909,13.543-13.119,24.984-26.664,24.984H149.685c-13.537,0-25.718-11.435-26.598-24.971l-14.673-225.582h16.607l11.401,122.539
	c2.05,22.03,21.696,39.952,43.793,39.952h151.567c22.098,0,41.743-17.922,43.793-39.952l11.401-122.539h16.59L388.446,470.675z"/>
</svg>