<?xml version="1.0" encoding="iso-8859-1"?>
<!-- Uploaded to: SVG Repo, www.svgrepo.com, Generator: SVG Repo Mixer Tools -->
<svg version="1.1" id="Layer_1" xmlns="http://www.w3.org/2000/svg" xmlns:xlink="http://www.w3.org/1999/xlink" 
	 viewBox="0 0 511.999 511.999" xml:space="preserve">
<polygon style="fill:#EF5352;" points="338.813,247.83 338.813,329.532 257.111,329.532 257.111,247.83 297.962,231.489 "/>
<path style="fill:#F9EBDB;" d="M297.962,231.489l-40.851,16.34v81.702h81.702V247.83L297.962,231.489z M297.962,187.915H410.7
	l-20.72,245.106H122.019l-20.72-245.106H297.962z"/>
<g>
	<polygon style="fill:#BD9F79;" points="389.98,433.021 383.999,503.83 127.999,503.83 122.019,433.021 	"/>
	<polygon style="fill:#BD9F79;" points="95.319,117.106 101.299,187.915 410.7,187.915 416.68,117.106 	"/>
</g>
<rect x="78.978" y="73.532" style="fill:#F9EBDB;" width="354.043" height="43.574"/>
<polygon style="fill:#E8D6BD;" points="383.999,8.17 400.34,73.532 111.659,73.532 127.999,8.17 "/>
<path style="fill:#700D00;" d="M433.021,65.362h-26.302L391.926,6.189C391.016,2.551,387.748,0,383.999,0h-256
	c-3.748,0-7.017,2.551-7.926,6.189L105.28,65.362H78.978c-4.512,0-8.17,3.657-8.17,8.17v43.574c0,4.513,3.658,8.17,8.17,8.17h8.831
	l14.332,169.598c0.361,4.262,3.93,7.482,8.132,7.482c0.23,0,0.463-0.01,0.697-0.028c4.496-0.38,7.834-4.333,7.453-8.829
	l-8.232-97.414h179.6v29.872l-35.716,14.286c-3.101,1.242-5.135,4.245-5.135,7.586v81.702c0,4.513,3.658,8.17,8.17,8.17h81.702
	c4.512,0,8.17-3.657,8.17-8.17V247.83c0-3.34-2.034-6.344-5.135-7.586l-35.716-14.286v-29.872h95.674l-19.332,228.766h-252.95
	l-8.349-98.79c-0.38-4.496-4.338-7.828-8.828-7.453c-4.496,0.38-7.834,4.333-7.453,8.829l14.965,177.08
	c0.357,4.23,3.896,7.482,8.141,7.482h256c4.245,0,7.783-3.252,8.141-7.482l32.049-379.241h8.831c4.512,0,8.17-3.657,8.17-8.17
	V73.532C441.191,69.019,437.533,65.362,433.021,65.362z M330.644,321.362h-65.362v-68l32.681-13.072l32.681,13.072V321.362z
	 M108.811,179.745l-4.603-54.468h185.584v54.468H108.811z M135.508,495.66l-4.603-54.468h250.188l-4.603,54.468H135.508z
	 M403.187,179.745h-97.056v-54.468H407.79L403.187,179.745z M424.85,108.936H87.148V81.702h24.34c0.118,0.002,0.235,0.002,0.354,0
	h255.817c4.512,0,8.17-3.657,8.17-8.17s-3.658-8.17-8.17-8.17H122.123l12.255-49.021H377.62l14.794,59.173
	c0.91,3.637,4.178,6.189,7.926,6.189h24.511V108.936z"/>
</svg>