<?xml version="1.0" encoding="iso-8859-1"?>
<!-- Uploaded to: SVG Repo, www.svgrepo.com, Generator: SVG Repo Mixer Tools -->
<svg version="1.1" id="Layer_1" xmlns="http://www.w3.org/2000/svg" xmlns:xlink="http://www.w3.org/1999/xlink" 
	 viewBox="0 0 512.001 512.001" xml:space="preserve">
<rect x="214.771" y="386.651" style="fill:#296B94;" width="222.115" height="52.262"/>
<path style="fill:#C8FEFF;" d="M149.449,73.082H502.22c0,115.199-65.328,198.375-65.328,313.574H214.777
	C214.777,271.457,149.449,188.281,149.449,73.082z M432.319,217.614c6.023-18.292,10.531-35.97,15.509-53.974
	c-29.398,9.329-29.463,18.083-60.311,18.083s-30.848-18.292-61.696-18.292s-30.848,18.292-61.683,18.292
	c-30.848,0-30.913-8.754-60.311-18.083c4.991,18.004,9.486,35.682,15.509,53.974c13.431,40.765,27.216,82.627,32.442,129.846
	h148.098C405.103,300.24,418.9,258.378,432.319,217.614z"/>
<path style="fill:#8E4238;" d="M447.828,163.64c-4.978,18.004-9.486,35.682-15.509,53.974
	c-13.418,40.765-27.216,82.627-32.442,129.846H251.778c-5.226-47.219-19.01-89.081-32.442-129.846
	c-6.023-18.292-10.518-35.97-15.509-53.974c29.398,9.329,29.463,18.083,60.311,18.083c30.835,0,30.835-18.292,61.683-18.292
	s30.848,18.292,61.696,18.292S418.43,172.968,447.828,163.64z"/>
<g>
	<path style="fill:#700D00;" d="M502.2,63.283h-54.382c-5.412,0-9.799,4.386-9.799,9.799s4.387,9.799,9.799,9.799h44.423
		c-1.683,51.821-16.44,96.64-32.012,143.923c-15.394,46.742-31.274,94.992-32.995,150.053H224.394
		c-1.721-55.061-17.601-103.31-32.995-150.053c-15.572-47.283-30.33-92.102-32.012-143.923h249.234c5.412,0,9.799-4.386,9.799-9.799
		s-4.387-9.799-9.799-9.799H149.429c-5.412,0-9.799,4.386-9.799,9.799c0,59.174,16.855,110.356,33.155,159.852
		c16.545,50.24,32.173,97.693,32.173,153.722v3.861L35.461,235.202c-19.918-18.253-21.273-49.307-3.022-69.224
		c18.253-19.921,49.308-21.273,69.224-3.025l8.405,7.703c3.99,3.657,10.189,3.388,13.846-0.604
		c3.656-3.99,3.387-10.189-0.604-13.846l-8.405-7.702c-27.885-25.551-71.36-23.654-96.915,4.231
		c-25.552,27.886-23.654,71.362,4.232,96.915l182.738,167.447v21.82c0,5.413,4.387,9.799,9.799,9.799h222.115
		c5.412,0,9.799-4.386,9.799-9.799v-52.262c0-56.03,15.626-103.482,32.173-153.722c16.301-49.496,33.155-100.678,33.155-159.852
		C511.999,67.67,507.612,63.283,502.2,63.283z M224.556,429.119v-32.664h202.517v32.664H224.556z"/>
	<path style="fill:#700D00;" d="M361.654,164.149c-8.312-4.928-17.735-10.516-35.849-10.516c-18.106,0-27.528,5.586-35.84,10.515
		c-7.326,4.344-13.113,7.775-25.846,7.775c-17.279,0-23.027-2.809-32.549-7.464c-5.941-2.903-13.335-6.517-24.796-10.153
		c-3.427-1.088-7.176-0.21-9.764,2.284c-2.588,2.496-3.603,6.209-2.643,9.674c1.135,4.093,2.245,8.173,3.353,12.245
		c3.721,13.673,7.568,27.813,12.297,42.173c13.221,40.148,26.893,81.663,32.009,127.856c0.55,4.965,4.745,8.721,9.74,8.721h148.097
		c4.995,0,9.19-3.756,9.74-8.721c5.116-46.193,18.787-87.709,32.011-127.864c4.728-14.356,8.576-28.5,12.3-42.177
		c1.107-4.069,2.216-8.142,3.35-12.233c0.96-3.465-0.055-7.178-2.643-9.674c-2.588-2.493-6.336-3.37-9.764-2.284
		c-11.462,3.636-18.858,7.251-24.798,10.155c-9.523,4.654-15.271,7.464-32.553,7.464
		C374.766,171.925,368.979,168.493,361.654,164.149z M428.662,182.069c1.454-0.711,2.958-1.445,4.563-2.2
		c-3.115,11.385-6.394,23.039-10.229,34.683c-12.713,38.606-25.833,78.451-31.807,123.111h-130.75
		c-5.972-44.659-19.093-84.504-31.809-123.116c-3.832-11.638-7.11-23.291-10.225-34.676c1.603,0.754,3.106,1.489,4.559,2.199
		c10.807,5.282,19.344,9.454,41.155,9.454c18.109,0,27.53-5.587,35.843-10.516c7.325-4.343,13.111-7.774,25.846-7.774
		c12.738,0,18.524,3.431,25.85,7.775c8.314,4.928,17.735,10.516,35.847,10.516C409.318,191.523,417.854,187.35,428.662,182.069z"/>
</g>
</svg>