<?xml version="1.0" encoding="iso-8859-1"?>
<!-- Uploaded to: SVG Repo, www.svgrepo.com, Generator: SVG Repo Mixer Tools -->
<svg version="1.1" id="Layer_1" xmlns="http://www.w3.org/2000/svg" xmlns:xlink="http://www.w3.org/1999/xlink" 
	 viewBox="0 0 512 512" xml:space="preserve">
<path style="fill:#296B94;" d="M491.574,313.191h-32.681c0-62.377-23.04-121.54-65.024-167.348H320v-32.681h87.846l4.815,4.978
	C463.545,170.724,491.574,239.997,491.574,313.191z"/>
<rect x="102.127" y="102.269" style="fill:#3C95AB;" width="217.872" height="54.468"/>
<g>
	<polygon style="fill:#C8FEFF;" points="69.447,8.17 102.127,102.269 320,102.269 332.843,65.285 	"/>
	<path style="fill:#C8FEFF;" d="M320,156.737c49.381,34.457,81.702,91.67,81.702,156.454c0,105.287-85.352,190.638-190.638,190.638
		S20.425,418.478,20.425,313.191c0-64.784,32.321-121.998,81.702-156.454H320z M369.021,313.191
		c-39.489,0-39.489,21.787-78.979,21.787s-39.489-21.787-78.979-21.787s-39.489,21.787-78.979,21.787s-39.489-21.787-78.979-21.787
		c0,87.094,70.863,157.957,157.957,157.957S369.021,400.286,369.021,313.191z"/>
</g>
<path style="fill:#8E4238;" d="M290.042,334.978c39.489,0,39.489-21.787,78.979-21.787c0,87.094-70.863,157.957-157.957,157.957
	S53.106,400.286,53.106,313.191c39.489,0,39.489,21.787,78.979,21.787s39.489-21.787,78.979-21.787S250.553,334.978,290.042,334.978
	z"/>
<g>
	<path style="fill:#700D00;" d="M499.733,312.581c-0.155-75.102-28.981-146.15-81.211-200.121l-4.817-4.977
		c-1.539-1.59-3.658-2.488-5.872-2.488h-79.674v-1.345l12.389-35.681c0.767-2.208,0.551-4.641-0.594-6.679
		c-1.145-2.038-3.108-3.489-5.392-3.985L71.168,0.186c-2.89-0.626-5.888,0.355-7.847,2.567c-1.96,2.211-2.572,5.308-1.604,8.098
		l32.229,92.799v48.907c-51.233,37.412-81.702,97.125-81.702,160.634C12.244,422.815,101.429,512,211.053,512
		s198.808-89.185,198.808-198.809c0-62.685-29.679-121.681-79.713-159.175h60.075c39.036,43.872,60.489,100.253,60.489,159.176
		c0,4.512,3.657,8.17,8.17,8.17h32.681c4.534,0,8.192-3.658,8.192-8.17C499.755,312.986,499.748,312.783,499.733,312.581z
		 M322.088,71.319l-7.911,22.783h-26.869c-4.513,0-8.17,3.658-8.17,8.17c0,4.512,3.657,8.17,8.17,8.17h24.511v38.128H110.287
		v-38.128h144.34c4.513,0,8.17-3.658,8.17-8.17s-3.657-8.17-8.17-8.17H107.928L81.93,19.239L322.088,71.319z M393.521,313.191
		c0,100.613-81.856,182.468-182.468,182.468S28.585,413.805,28.585,313.191c0-58.77,28.435-114,76.167-148.282h212.602
		C365.086,199.192,393.521,254.421,393.521,313.191z M466.924,305.021c-1.933-61.237-25.569-119.444-67.049-164.697
		c-1.547-1.689-3.732-2.649-6.022-2.649h-65.694v-16.34h76.212l2.409,2.489c47.509,49.093,74.492,113.163,76.494,181.198H466.924z"
		/>
	<path style="fill:#700D00;" d="M290.029,326.808c-17.64,0-25.938-4.578-35.544-9.877c-10.119-5.582-21.587-11.91-43.437-11.91
		c-21.849,0-33.318,6.328-43.436,11.91c-9.606,5.3-17.903,9.877-35.542,9.877s-25.937-4.578-35.542-9.877
		c-10.118-5.582-21.586-11.91-43.434-11.91c-4.513,0-8.17,3.658-8.17,8.17c0,37.977,13.21,75.139,37.195,104.64
		c2.846,3.5,7.992,4.033,11.494,1.185c3.501-2.847,4.032-7.993,1.185-11.494c-19.815-24.372-31.474-54.545-33.285-85.764
		c12.149,1.22,19.188,5.104,27.122,9.482c10.118,5.582,21.587,11.909,43.435,11.909s33.317-6.328,43.435-11.91
		c9.606-5.3,17.903-9.877,35.543-9.877s25.938,4.577,35.544,9.877c10.119,5.583,21.587,11.91,43.437,11.91
		c21.85,0,33.318-6.328,43.437-11.91c7.936-4.378,14.977-8.263,27.132-9.482c-4.452,78.625-69.826,141.222-149.545,141.222
		c-34.235,0-67.735-11.909-94.331-33.533c-3.502-2.849-8.647-2.315-11.494,1.185c-2.847,3.501-2.316,8.647,1.185,11.494
		c29.501,23.984,66.662,37.194,104.64,37.194c91.603,0,166.128-74.524,166.128-166.128c0-4.512-3.657-8.17-8.17-8.17
		c-21.85,0-33.318,6.328-43.437,11.91C315.967,322.232,307.67,326.808,290.029,326.808z"/>
</g>
</svg>