<?xml version="1.0" encoding="iso-8859-1"?>
<!-- Uploaded to: SVG Repo, www.svgrepo.com, Generator: SVG Repo Mixer Tools -->
<svg version="1.1" id="Layer_1" xmlns="http://www.w3.org/2000/svg" xmlns:xlink="http://www.w3.org/1999/xlink" 
	 viewBox="0 0 512 512" xml:space="preserve">
<path style="fill:#C8FEFF;" d="M395.462,40.773l-52.396,430.609c-2.168,17.847-18.653,32.447-36.63,32.447h-100.87
	c-17.977,0-34.462-14.6-36.63-32.447L116.539,40.773h32.926l46.654,383.443c8.607,18.98,111.155,18.98,119.763,0l46.654-383.443
	C362.536,40.773,395.462,40.773,395.462,40.773z"/>
<path style="fill:#8E4238;" d="M362.536,40.773l-46.654,383.443c-8.607,18.98-111.155,18.98-119.762,0L149.465,40.773
	C149.465,40.773,362.536,40.773,362.536,40.773z"/>
<g>
	
		<rect x="182.19" y="106.677" transform="matrix(0.9239 -0.3827 0.3827 0.9239 -39.4813 96.5897)" style="fill:#C67741;" width="81.718" height="81.718"/>
	
		<rect x="237.046" y="192.391" transform="matrix(-0.9239 -0.3827 0.3827 -0.9239 445.3927 555.0955)" style="fill:#C67741;" width="81.718" height="81.718"/>
	<polygon style="fill:#C67741;" points="331.288,39.443 300.018,114.938 224.524,83.668 242.839,39.443 	"/>
</g>
<polygon style="fill:#F7CD95;" points="331.288,39.443 242.839,39.443 255.794,8.173 "/>
<path style="fill:#700D00;" d="M401.577,35.354c-1.55-1.751-3.777-2.753-6.117-2.753h-32.772c-0.01,0-26.94,0-26.94,0
	c-0.415-0.27-0.857-0.511-1.332-0.707L258.919,0.622c-2.003-0.829-4.251-0.829-6.254,0c-2.003,0.829-3.593,2.42-4.422,4.422
	l-11.414,27.557H116.541c-2.339,0-4.566,1.002-6.117,2.753c-1.552,1.751-2.277,4.083-1.995,6.404l52.394,430.609
	C163.482,494.221,183.556,512,205.569,512H306.43c22.014,0,42.087-17.778,44.745-39.632l52.394-430.609
	C403.854,39.437,403.127,37.105,401.577,35.354z M334.487,203.611c-0.025-0.011-0.047-0.024-0.072-0.034l-59.267-24.548l4.419-1.83
	c4.17-1.727,6.149-6.508,4.422-10.676l-24.689-59.605l37.588,15.57c1.023,0.424,2.082,0.624,3.124,0.624
	c3.207,0,6.25-1.9,7.553-5.047l28.631-69.121h17.109L334.487,203.611z M247.748,48.944h70.759l-22.914,55.317l-60.397-25.017
	L247.748,48.944z M205.366,190.243l-25.017-60.397l60.397-25.017l25.017,60.397L205.366,190.243z M320.61,215.549l-25.017,60.396
	l-60.397-25.017l25.017-60.397L320.61,215.549z M260.214,18.848l33.202,13.753h-38.898L260.214,18.848z M216.971,86.794
	c0.829,2.003,2.42,3.593,4.422,4.422l4.755,1.97l-59.092,24.477l-8.361-68.719h71.363L216.97,80.54
	C216.142,82.542,216.142,84.791,216.971,86.794z M334.953,470.394c-1.666,13.693-14.728,25.262-28.522,25.262H205.57
	c-13.795,0-26.856-11.569-28.522-25.262l-51.28-421.45h16.463l32.143,264.175c0.504,4.146,4.029,7.186,8.102,7.186
	c0.329,0,0.662-0.021,0.997-0.061c4.48-0.545,7.67-4.619,7.126-9.099l-19.614-161.202l22.41,54.103
	c1.303,3.147,4.346,5.047,7.553,5.047c1.043,0,2.102-0.2,3.124-0.624l37.449-15.512l-24.55,59.267c-0.829,2.003-0.829,4.251,0,6.254
	s2.42,3.593,4.422,4.422l75.495,31.271c1.023,0.424,2.082,0.624,3.124,0.624c3.207,0,6.25-1.9,7.553-5.047l23.278-56.199
	l-22.847,187.774c-3.58,3.409-20.969,8.954-51.992,8.954c-31.12,0-48.523-5.578-51.996-8.915l-9.463-77.773
	c-0.545-4.48-4.617-7.662-9.099-7.126c-4.48,0.545-7.67,4.619-7.126,9.099l9.69,79.638c0.1,0.825,0.326,1.63,0.669,2.386
	c7.785,17.179,49.674,19.033,67.323,19.033c17.647,0,59.533-1.854,67.316-19.032c0.342-0.757,0.568-1.561,0.669-2.386L369.77,48.944
	h16.464L334.953,470.394z"/>
</svg>