<?xml version="1.0" encoding="iso-8859-1"?>
<!-- Uploaded to: SVG Repo, www.svgrepo.com, Generator: SVG Repo Mixer Tools -->
<svg height="800px" width="800px" version="1.1" id="Layer_1" xmlns="http://www.w3.org/2000/svg" xmlns:xlink="http://www.w3.org/1999/xlink" 
	 viewBox="0 0 512 512" xml:space="preserve">
<path style="fill:#C8FEFF;" d="M405.788,8.17l-55.993,463.218c-2.157,17.844-18.628,32.441-36.603,32.441H198.809
	c-17.974,0-34.446-14.597-36.603-32.441L106.213,8.17H405.788z M322.778,422.531l46.145-381.68
	c-28.236,0-28.236,10.894-56.473,10.894c-28.225,0-28.225-10.894-56.462-10.894c-28.225,0-28.225,10.894-56.451,10.894
	s-28.225-10.894-56.462-10.894l46.145,381.68C198.842,443.762,313.159,443.762,322.778,422.531z"/>
<path style="fill:#8E4238;" d="M368.924,40.851l-46.145,381.68c-9.619,21.232-123.937,21.232-133.556,0l-46.145-381.68
	c28.236,0,28.236,10.894,56.462,10.894s28.225-10.894,56.451-10.894c28.236,0,28.236,10.894,56.462,10.894
	C340.687,51.745,340.687,40.851,368.924,40.851z"/>
<g>
	<path style="fill:#700D00;" d="M411.901,2.751C410.352,1.001,408.125,0,405.788,0H106.213c-2.338,0-4.563,1.001-6.113,2.751
		c-1.551,1.75-2.278,4.08-1.998,6.4l55.993,463.215c2.642,21.855,22.7,39.634,44.714,39.634h114.383
		c22.014,0,42.072-17.781,44.713-39.634L413.898,9.151C414.179,6.83,413.452,4.5,411.901,2.751z M341.682,470.405
		c-1.654,13.689-14.701,25.255-28.49,25.255H198.809c-13.789,0-26.836-11.566-28.491-25.255L115.43,16.34h281.14L341.682,470.405z"
		/>
	<path style="fill:#700D00;" d="M134.971,41.831l46.136,381.677c0.1,0.827,0.326,1.634,0.669,2.392
		c8.476,18.704,54.73,20.724,74.223,20.724c19.497,0,65.752-2.02,74.227-20.724c0.343-0.758,0.57-1.565,0.669-2.392l32.642-270.035
		c0.541-4.479-2.652-8.55-7.131-9.092c-4.472-0.541-8.55,2.65-9.092,7.131L314.885,419.78c-3.625,3.896-23.4,10.505-58.879,10.506
		c-35.494,0.001-55.273-6.611-58.892-10.501L152.361,49.527c6.73,0.813,11.131,2.511,16.008,4.393
		c7.281,2.811,15.534,5.995,31.17,5.995s23.889-3.185,31.169-5.995c6.812-2.629,12.694-4.899,25.286-4.899
		c12.594,0,18.477,2.27,25.29,4.899c7.282,2.811,15.535,5.995,31.172,5.995c15.637,0,23.892-3.184,31.173-5.995
		c4.879-1.882,9.28-3.581,16.01-4.393l-8.406,69.542c-0.541,4.479,2.65,8.55,7.13,9.092c4.479,0.545,8.552-2.65,9.093-7.131
		l9.572-79.198c0.281-2.32-0.446-4.65-1.997-6.4c-1.55-1.748-3.777-2.751-6.113-2.751c-15.637,0-23.891,3.184-31.172,5.995
		c-6.813,2.629-12.695,4.899-25.291,4.899c-12.594,0-18.477-2.27-25.29-4.899c-7.281-2.811-15.534-5.995-31.172-5.995
		c-15.636,0-23.888,3.184-31.169,5.995c-6.812,2.629-12.694,4.899-25.286,4.899c-12.592,0-18.474-2.27-25.286-4.899
		c-7.281-2.811-15.534-5.995-31.17-5.995c-2.338,0-4.563,1.001-6.113,2.751C135.418,37.181,134.691,39.511,134.971,41.831z"/>
</g>
<g>
	<path style="fill:#FFFFFF;" d="M256,288.674c-4.512,0-8.17-3.658-8.17-8.17v-81.702c0-4.512,3.658-8.17,8.17-8.17
		c4.513,0,8.17,3.658,8.17,8.17v81.702C264.171,285.016,260.514,288.674,256,288.674z"/>
	<path style="fill:#FFFFFF;" d="M291.371,268.251c-1.386,0-2.791-0.353-4.078-1.096l-70.756-40.851
		c-3.908-2.256-5.246-7.253-2.99-11.161c2.255-3.908,7.252-5.249,11.161-2.99l70.756,40.851c3.908,2.256,5.246,7.253,2.99,11.161
		C296.941,266.785,294.194,268.251,291.371,268.251z"/>
	<path style="fill:#FFFFFF;" d="M220.63,268.251c-2.824,0-5.57-1.465-7.083-4.086c-2.256-3.908-0.917-8.904,2.99-11.161
		l70.756-40.851c3.906-2.257,8.903-0.917,11.16,2.99c2.256,3.908,0.917,8.904-2.99,11.161l-70.756,40.851
		C223.421,267.897,222.016,268.251,220.63,268.251z"/>
</g>
</svg>