<?xml version="1.0" encoding="iso-8859-1"?>
<!-- Uploaded to: SVG Repo, www.svgrepo.com, Generator: SVG Repo Mixer Tools -->
<svg height="800px" width="800px" version="1.1" id="Layer_1" xmlns="http://www.w3.org/2000/svg" xmlns:xlink="http://www.w3.org/1999/xlink" 
	 viewBox="0 0 512 512" xml:space="preserve">
<path style="fill:#E8D6BD;" d="M492.936,421.936l-6.405,22.419c-2.473,8.639-11.841,15.709-20.829,15.709H73.532
	c-8.987,0-18.356-7.07-20.829-15.709l-6.405-22.419H492.936z"/>
<path style="fill:#C8FEFF;" d="M443.915,131.784v87.149c0,96.267-78.042,174.298-174.298,174.298
	c-49.849,0-94.796-20.927-126.562-54.468H95.319c-23.28,0-45.165-9.064-61.625-25.524S8.17,274.894,8.17,251.614
	s9.063-45.165,25.524-61.625s38.346-25.524,61.625-25.524v-32.681H128v65.362v21.787c0,22.223,5.153,43.28,14.314,62.017
	c23.04,47.093,71.44,79.6,127.303,79.6s104.263-32.507,127.303-79.6c9.162-18.737,14.314-39.794,14.314-62.017v-21.787v-65.362
	H443.915z M95.319,306.082h23.323c-14.837-25.633-23.323-55.405-23.323-87.149v-21.787c-14.554,0-28.225,5.665-38.52,15.948
	c-10.284,10.294-15.948,23.966-15.948,38.52c0,14.554,5.665,28.225,15.959,38.52C67.094,300.418,80.765,306.082,95.319,306.082z"/>
<path style="fill:#BD9F79;" d="M396.909,280.951c-23.029,47.093-71.429,79.6-127.292,79.6s-104.263-32.507-127.303-79.6H396.909z"/>
<path style="fill:#B75548;" d="M411.234,197.146v21.787c0,22.223-5.153,43.28-14.314,62.017c-0.011,0-254.606,0-254.606,0
	C133.153,262.214,128,241.156,128,218.933v-21.787c35.404,0,35.404,15.251,70.809,15.251s35.404-15.251,70.798-15.251
	c35.415,0,35.415,15.251,70.819,15.251S375.83,197.146,411.234,197.146z"/>
<path style="fill:#F9EBDB;" d="M411.234,131.784v65.362c-35.404,0-35.404,15.251-70.809,15.251s-35.404-15.251-70.819-15.251
	c-35.393,0-35.393,15.251-70.798,15.251S163.404,197.146,128,197.146v-65.362H411.234z"/>
<path style="fill:#FFFFFF;" d="M411.234,131.784H128c0-29.543,23.955-53.499,53.499-53.499c13.977,0,26.689,5.36,36.221,14.129
	c5.817-23.247,26.842-40.481,51.897-40.481s46.08,17.234,51.897,40.481c9.532-8.769,22.245-14.129,36.221-14.129
	C387.279,78.286,411.234,102.241,411.234,131.784z"/>
<g>
	<path style="fill:#700D00;" d="M503.83,413.766H35.404c-4.512,0-8.17,3.657-8.17,8.17c0,4.513,3.658,8.17,8.17,8.17h4.731
		l4.711,16.491c3.466,12.133,16.066,21.637,28.685,21.637h392.17c12.619,0,25.219-9.505,28.685-21.637l4.712-16.491h4.731
		c4.512,0,8.17-3.657,8.17-8.17C512,417.423,508.342,413.766,503.83,413.766z M478.675,442.107
		c-1.463,5.122-7.647,9.786-12.973,9.786H73.532c-5.327,0-11.51-4.664-12.973-9.786l-3.429-12.001h424.975L478.675,442.107z"/>
	<path style="fill:#700D00;" d="M95.319,346.933h44.263c34.564,35.155,80.6,54.468,130.034,54.468
		c100.613,0,182.468-81.856,182.468-182.468v-87.149c0-4.513-3.658-8.17-8.17-8.17h-25.068c-4.011-30.155-29.878-53.5-61.112-53.5
		c-11.505,0-22.633,3.183-32.27,9.114c-9.981-21.35-31.534-35.462-55.847-35.462c-24.313,0-45.866,14.112-55.847,35.462
		c-9.638-5.93-20.765-9.114-32.27-9.114c-31.234,0-57.101,23.345-61.112,53.5H95.318c-4.512,0-8.17,3.657-8.17,8.17v24.853
		c-22.38,1.887-43.168,11.511-59.231,27.575C9.914,202.216,0,226.154,0,251.614s9.915,49.397,27.918,67.401
		C45.923,337.019,69.86,346.933,95.319,346.933z M403.063,218.933c0,18.863-3.86,37.057-11.309,53.843H147.526
		c-7.295-16.478-11.358-34.693-11.358-53.843v-13.295c10.693,0.904,16.956,3.603,24,6.636c9.022,3.887,19.249,8.292,38.635,8.292
		s29.613-4.405,38.636-8.292c8.668-3.734,16.154-6.959,32.171-6.959c16.018,0,23.504,3.225,32.173,6.959
		c9.023,3.887,19.25,8.292,38.637,8.292c19.387,0,29.614-4.405,38.637-8.292c7.044-3.034,13.308-5.732,24.003-6.636v13.295H403.063z
		 M403.063,189.271c-14.26,1.035-22.808,4.697-30.467,7.997c-8.669,3.734-16.155,6.959-32.173,6.959
		c-16.018,0-23.504-3.225-32.173-6.959c-9.023-3.887-19.25-8.292-38.637-8.292c-19.386,0-29.613,4.405-38.636,8.292
		c-8.668,3.734-16.154,6.959-32.171,6.959s-23.502-3.225-32.17-6.959c-7.658-3.3-16.206-6.962-30.465-7.997v-49.316h266.894
		L403.063,189.271L403.063,189.271z M181.499,86.455c11.4,0,22.298,4.253,30.686,11.975c2.122,1.954,5.119,2.644,7.876,1.816
		c2.763-0.827,4.884-3.048,5.583-5.844c5.049-20.192,23.13-34.294,43.971-34.294s38.922,14.102,43.971,34.294
		c0.699,2.796,2.821,5.018,5.583,5.844c2.762,0.826,5.755,0.136,7.876-1.816c8.388-7.722,19.286-11.975,30.686-11.975
		c22.204,0,40.718,16.053,44.578,37.159h-265.39C140.78,102.508,159.294,86.455,181.499,86.455z M39.472,195.767
		c14.916-14.917,34.748-23.132,55.846-23.132c4.512,0,8.17-3.657,8.17-8.17v-24.511h16.34v78.979
		c0,82.592,67.194,149.787,149.787,149.787c34.086,0,66.227-11.206,92.949-32.409c3.535-2.804,4.126-7.944,1.322-11.479
		c-2.805-3.536-7.945-4.125-11.479-1.321c-23.803,18.885-52.431,28.868-82.792,28.868c-47.851,0-89.894-25.321-113.452-63.264
		h226.898c-2.701,4.33-5.644,8.545-8.87,12.609c-2.804,3.534-2.212,8.673,1.322,11.478c3.535,2.806,8.673,2.212,11.479-1.322
		c21.201-26.721,32.409-58.861,32.409-92.948v-78.979h16.34v78.979c0,91.603-74.524,166.128-166.128,166.128
		c-46.083,0-88.925-18.437-120.633-51.916c-1.544-1.63-3.687-2.552-5.932-2.552H95.319c-21.094,0-40.928-8.215-55.846-23.133
		C24.556,292.543,16.34,272.71,16.34,251.614C16.34,230.518,24.555,210.685,39.472,195.767z"/>
	<path style="fill:#700D00;" d="M95.319,314.253h23.322c2.921,0,5.618-1.559,7.078-4.088s1.458-5.646-0.004-8.173
		c-14.541-25.135-22.226-53.856-22.226-83.057v-21.787c0-4.513-3.658-8.17-8.17-8.17c-16.732,0-32.462,6.515-44.291,18.346
		c-11.83,11.83-18.346,27.561-18.346,44.292c0,16.73,6.515,32.461,18.347,44.292C62.859,307.738,78.589,314.253,95.319,314.253z
		 M62.582,218.876c6.786-6.786,15.309-11.206,24.566-12.846v12.903c0,27.416,6.173,54.454,17.945,78.979h-9.774
		c-12.366,0-23.992-4.816-32.737-13.559c-8.744-8.745-13.56-20.372-13.56-32.739C49.021,239.248,53.836,227.621,62.582,218.876z"/>
</g>
</svg>