<?xml version="1.0" encoding="iso-8859-1"?>
<!-- Uploaded to: SVG Repo, www.svgrepo.com, Generator: SVG Repo Mixer Tools -->
<svg height="800px" width="800px" version="1.1" id="Layer_1" xmlns="http://www.w3.org/2000/svg" xmlns:xlink="http://www.w3.org/1999/xlink" 
	 viewBox="0 0 512 512" xml:space="preserve">
<path style="fill:#E8D6BD;" d="M492.936,465.619l-6.405,22.419c-2.473,8.639-11.841,15.709-20.829,15.709H73.532
	c-8.987,0-18.356-7.07-20.829-15.709l-6.405-22.419H492.936z"/>
<path style="fill:#C8FEFF;" d="M443.915,175.467v87.149c0,96.267-78.042,174.298-174.298,174.298
	c-49.849,0-94.796-20.927-126.562-54.468H95.319c-23.28,0-45.165-9.064-61.625-25.524S8.17,318.577,8.17,295.297
	c0-23.28,9.063-45.165,25.524-61.625s38.346-25.524,61.625-25.524v-32.681H443.915z M411.234,262.616v-54.468
	c-35.404,0-35.404,15.251-70.809,15.251s-35.404-15.251-70.819-15.251c-35.393,0-35.393,15.251-70.798,15.251
	S163.404,208.148,128,208.148v54.468c0,78.085,63.532,141.617,141.617,141.617S411.234,340.702,411.234,262.616z M95.319,349.765
	h23.323c-14.837-25.633-23.323-55.405-23.323-87.149v-21.787c-14.554,0-28.225,5.665-38.52,15.948
	c-10.284,10.294-15.948,23.966-15.948,38.52c0,14.554,5.665,28.225,15.959,38.52C67.094,344.1,80.765,349.765,95.319,349.765z"/>
<path style="fill:#51C0C2;" d="M411.234,208.148v54.468c0,78.085-63.532,141.617-141.617,141.617S128,340.702,128,262.616v-54.468
	c35.404,0,35.404,15.251,70.809,15.251s35.404-15.251,70.798-15.251c35.415,0,35.415,15.251,70.819,15.251
	S375.83,208.148,411.234,208.148z"/>
<path style="fill:#3C95AB;" d="M311.8,33.333C286.419,7.952,247.314,2.241,208.414,14.301l122.418,122.418
	C342.892,97.82,337.181,58.715,311.8,33.333z"/>
<path style="fill:#51C0C2;" d="M208.414,14.301c-12.059,38.9-6.349,78.005,19.032,103.386s64.486,31.091,103.386,19.032
	L208.414,14.301z"/>
<g>
	<path style="fill:#700D00;" d="M196.704,76.686c0.063,0.434,0.15,0.86,0.279,1.268c4.016,17.526,12.326,33.15,24.686,45.51
		c18.055,18.056,43.067,27.484,70.81,27.482c13.091,0,26.795-2.102,40.654-6.387c0.072-0.022,0.096-0.027,0.12-0.035
		c0.05-0.015,0.097-0.039,0.146-0.056c0.23-0.076,0.458-0.161,0.682-0.258c0.087-0.038,0.172-0.08,0.258-0.12
		c0.194-0.093,0.386-0.193,0.574-0.302c0.085-0.049,0.17-0.097,0.252-0.149c0.187-0.118,0.368-0.245,0.547-0.379
		c0.07-0.052,0.143-0.1,0.21-0.155c0.236-0.188,0.465-0.389,0.684-0.607c0.224-0.223,0.426-0.455,0.616-0.694
		c0.05-0.063,0.095-0.131,0.143-0.195c0.139-0.185,0.271-0.374,0.392-0.568c0.048-0.076,0.092-0.155,0.137-0.232
		c0.114-0.197,0.22-0.398,0.317-0.601c0.036-0.077,0.073-0.153,0.108-0.231c0.105-0.241,0.196-0.484,0.277-0.731
		c0.012-0.037,0.029-0.072,0.041-0.109c0.005-0.017,0.01-0.036,0.015-0.054c0.009-0.029,0.017-0.06,0.026-0.09
		c4.171-13.5,6.317-27.018,6.375-40.183c0.021-4.513-3.622-8.187-8.134-8.206c-4.532,0-8.187,3.634-8.206,8.134
		c-0.032,7.228-0.802,14.602-2.269,22.037l-48.651-48.651V21.529c10.747,3.799,20.332,9.684,28.229,17.581
		c8.266,8.267,14.39,18.325,18.203,29.895c1.412,4.284,6.029,6.617,10.317,5.202c4.286-1.412,6.615-6.031,5.202-10.317
		c-4.619-14.019-12.078-26.244-22.169-36.335C305.217,15.196,289.592,6.886,272.066,2.87c-0.406-0.127-0.83-0.215-1.261-0.277
		c-19.838-4.291-42.045-3.13-64.685,3.867c-0.021,0.007-0.041,0.012-0.062,0.019c-0.021,0.007-0.042,0.012-0.063,0.019
		c-0.04,0.012-0.078,0.032-0.118,0.045c-0.244,0.08-0.485,0.17-0.721,0.273c-0.078,0.034-0.155,0.071-0.232,0.108
		c-0.205,0.097-0.406,0.203-0.605,0.318c-0.076,0.044-0.151,0.087-0.227,0.134c-0.199,0.124-0.392,0.259-0.582,0.403
		c-0.059,0.045-0.121,0.085-0.179,0.131c-0.24,0.191-0.473,0.393-0.695,0.615c-0.222,0.222-0.425,0.456-0.617,0.696
		c-0.045,0.056-0.084,0.114-0.126,0.171c-0.146,0.193-0.283,0.389-0.41,0.592c-0.045,0.071-0.086,0.144-0.127,0.217
		c-0.118,0.203-0.227,0.41-0.326,0.62c-0.034,0.072-0.069,0.144-0.101,0.217c-0.108,0.246-0.203,0.497-0.284,0.751
		c-0.011,0.033-0.026,0.063-0.036,0.096c-0.024,0.08-0.033,0.109-0.04,0.138C193.575,34.654,192.415,56.853,196.704,76.686z
		 M249.896,67.339h-38.281c-1.734-11.639-1.375-24.172,1.178-37.103L249.896,67.339z M233.223,111.91
		c-7.897-7.897-13.784-17.482-17.582-28.23h50.598l48.66,48.66C282.598,138.714,252.757,131.444,233.223,111.91z M261.453,17.504
		v38.28L224.35,18.681C237.28,16.13,249.814,15.77,261.453,17.504z"/>
	<path style="fill:#700D00;" d="M95.319,390.616h44.263c34.564,35.155,80.6,54.468,130.034,54.468
		c100.612,0,182.468-81.856,182.468-182.468v-87.149c0-4.513-3.657-8.17-8.17-8.17H95.318c-4.513,0-8.17,3.657-8.17,8.17v24.853
		c-22.381,1.887-43.168,11.511-59.231,27.575C9.915,245.899,0,269.837,0,295.297s9.915,49.397,27.919,67.401
		C45.923,380.701,69.86,390.616,95.319,390.616z M39.472,239.45c14.914-14.917,34.747-23.132,55.846-23.132
		c4.513,0,8.17-3.657,8.17-8.17v-24.511h332.255v78.979c0,91.603-74.524,166.128-166.128,166.128
		c-46.084,0-88.926-18.437-120.633-51.916c-1.543-1.63-3.689-2.552-5.932-2.552H95.319c-21.094,0-40.927-8.215-55.846-23.133
		c-14.918-14.918-23.133-34.751-23.133-55.846C16.34,274.201,24.555,254.368,39.472,239.45z"/>
	<path style="fill:#700D00;" d="M95.319,357.935h23.322c2.921,0,5.618-1.559,7.078-4.088c1.459-2.53,1.456-5.646-0.005-8.173
		c-14.541-25.135-22.225-53.856-22.225-83.057v-21.787c0-4.513-3.657-8.17-8.17-8.17c-16.732,0-32.462,6.515-44.291,18.346
		c-11.83,11.83-18.346,27.561-18.346,44.292c0,16.73,6.515,32.461,18.347,44.292C62.858,351.419,78.589,357.935,95.319,357.935z
		 M62.582,262.559c6.786-6.786,15.309-11.206,24.566-12.846v12.903c0,27.418,6.171,54.453,17.945,78.979h-9.774
		c-12.366,0-23.992-4.816-32.736-13.56c-8.745-8.745-13.561-20.372-13.561-32.737C49.021,282.93,53.837,271.304,62.582,262.559z"/>
	<path style="fill:#700D00;" d="M269.615,412.403c34.087,0,66.228-11.206,92.949-32.409c3.534-2.804,4.126-7.944,1.321-11.479
		c-2.804-3.534-7.944-4.125-11.479-1.321c-23.801,18.885-52.431,28.868-82.792,28.868c-73.583,0-133.447-59.864-133.447-133.447
		l0.001-45.975c10.692,0.904,16.956,3.603,23.999,6.636c9.022,3.887,19.249,8.292,38.635,8.292c19.387,0,29.614-4.405,38.636-8.292
		c8.669-3.734,16.154-6.959,32.171-6.959c16.018,0,23.504,3.225,32.173,6.959c9.022,3.887,19.25,8.292,38.637,8.292
		s29.614-4.405,38.637-8.291c7.045-3.035,13.309-5.733,24.004-6.637l-0.001,45.975c0,30.362-9.983,58.99-28.868,82.792
		c-2.805,3.535-2.212,8.675,1.321,11.479c3.534,2.805,8.673,2.213,11.479-1.321c21.202-26.72,32.409-58.861,32.409-92.949
		l0.001-54.468c0-2.167-0.861-4.244-2.392-5.778c-1.533-1.532-3.61-2.392-5.778-2.392c-19.388,0-29.615,4.405-38.639,8.292
		c-8.669,3.734-16.155,6.959-32.173,6.959c-16.018,0-23.504-3.225-32.173-6.959c-9.022-3.887-19.25-8.292-38.637-8.292
		c-19.386,0-29.613,4.405-38.635,8.292c-8.669,3.734-16.155,6.959-32.172,6.959c-16.016,0-23.502-3.225-32.169-6.959
		c-9.022-3.887-19.249-8.292-38.635-8.292c-4.512,0-8.17,3.657-8.17,8.17l-0.001,54.468
		C119.828,345.208,187.023,412.403,269.615,412.403z"/>
	<path style="fill:#700D00;" d="M503.83,457.449H35.404c-4.513,0-8.17,3.657-8.17,8.17c0,4.513,3.657,8.17,8.17,8.17h4.73
		l4.713,16.491c3.466,12.133,16.066,21.637,28.685,21.637h392.17c12.619,0,25.219-9.505,28.686-21.637l4.712-16.491h4.73
		c4.513,0,8.17-3.657,8.17-8.17C512,461.106,508.343,457.449,503.83,457.449z M478.676,485.789
		c-1.464,5.121-7.648,9.786-12.974,9.786H73.532c-5.327,0-11.51-4.665-12.973-9.786l-3.428-12.001h424.975L478.676,485.789z"/>
</g>
</svg>