<svg width="34" height="34" viewBox="0 0 34 34" fill="none" xmlns="http://www.w3.org/2000/svg">
<path d="M16.7032 6.44551e-05C25.8131 0.00415735 33.1965 7.3901 33.1965 16.5006C33.1965 21.0534 31.3526 25.1756 28.3708 28.1611L28.3709 28.1609C25.3661 31.2699 21.1587 33.2002 16.5005 33.2002C7.38752 33.2002 0 25.8126 0 16.6997C0 12.0433 1.92875 7.83735 5.03094 4.83729L5.03555 4.83287C8.005 1.84761 12.1158 0 16.6581 0C16.674 0 16.6898 0 16.7057 6.44551e-05H16.7032H16.7032ZM16.7032 30.801C24.6011 30.801 31.0036 24.3985 31.0036 16.5006C31.0036 8.60266 24.6011 2.20017 16.7032 2.20017C8.80531 2.20017 2.40279 8.60263 2.40279 16.5005C2.41197 24.3947 8.80898 30.7917 16.7023 30.8009H16.7032V30.801ZM20.898 21.7954H9.707V19.5953H20.898C23.3808 19.5953 25.3935 17.5826 25.3935 15.0998C25.3935 12.617 23.3808 10.6043 20.898 10.6043H9.707V8.4043H20.898C24.5959 8.4043 27.5935 11.402 27.5935 15.0998C27.5935 18.7976 24.5958 21.7953 20.898 21.7953V21.7954ZM14.5163 27.0756L8.15379 20.6954L14.5163 14.3152L16.074 15.8684L11.2603 20.6954L16.074 25.5209L14.5163 27.0756Z" fill="white"/>
</svg>
