<?xml version="1.0" encoding="utf-8"?>
<!-- Generator: Adobe Illustrator 28.1.0, SVG Export Plug-In . SVG Version: 6.00 Build 0)  -->
<svg version="1.1" xmlns="http://www.w3.org/2000/svg" xmlns:xlink="http://www.w3.org/1999/xlink" x="0px" y="0px"
	 viewBox="0 0 281 198.9" style="enable-background:new 0 0 281 198.9;" xml:space="preserve">
<style type="text/css">
	.st0{display:none;}
	.st1{display:inline;}
	.st2{fill:#FFFFFF;}
</style>
<g id="Livello_2" class="st0">
	<rect y="-77.1" class="st1" width="281" height="276"/>
</g>
<g id="Livello_1">
	<path class="st2" d="M0,0h198.7v100.3c-0.1,54.3-44.1,98.3-98.4,98.4h-2C44.1,198.6,0.1,154.6,0,100.3v0V0z M174.4,24.4h-150v76
		c0,40.9,33.2,74,74,74h2c40.9,0,74-33.2,74-74v0V24.4z M227.2,15.6C256.4,15.9,280,39.7,280,69c0,0.1,0,0.3,0,0.4v0
		c0,0.1,0,0.3,0,0.4c0,29.3-23.6,53.1-52.8,53.4h0c-29.3-0.3-52.8-24.1-52.8-53.4c0-0.1,0-0.3,0-0.4v0c0-0.1,0-0.3,0-0.4
		C174.4,39.7,197.9,15.9,227.2,15.6L227.2,15.6z M227.2,98.9c15.8-0.3,28.5-13.2,28.5-29c0-0.2,0-0.3,0-0.5v0c0-0.1,0-0.3,0-0.4
		c0-15.8-12.7-28.7-28.5-29l0,0c-15.8,0.3-28.5,13.2-28.5,29c0,0.2,0,0.3,0,0.5v0c0,0.1,0,0.3,0,0.4
		C198.7,85.7,211.4,98.6,227.2,98.9L227.2,98.9L227.2,98.9z"/>
	<path class="st2" d="M125.4,178.2H73.2c-27.6,0-50-22.4-50-50v0h152.2v0C175.4,155.8,153,178.2,125.4,178.2z"/>
</g>
<g id="Livello_3">
</g>
</svg>
